<?xml version="1.0" encoding="UTF-8" standalone="no"?>
<svg
   viewBox="0 0 512 512"
   version="1.1"
   id="svg1"
   xmlns="http://www.w3.org/2000/svg"
   xmlns:svg="http://www.w3.org/2000/svg">
  <defs
     id="defs1" />
  <!--!Font Awesome Free 6.6.0 by @fontawesome - https://fontawesome.com License - https://fontawesome.com/license/free Copyright 2024 Fonticons, Inc.-->
  <path
     d="m 503.40503,147.20442 c 12.5,-9.95403 12.5,-26.11935 0,-36.07338 l -128,-101.9292013 c -12.5,-9.9540238 -32.8,-9.9540238 -45.3,0 -12.5,9.9540243 -12.5,26.1193573 0,36.0733823 l 73.4,58.450029 H 32.805031 c -17.7,0 -31.99999955,11.3874 -31.99999955,25.4823 0,14.09489 14.29999955,25.4823 31.99999955,25.4823 H 403.50503 l -73.4,58.45002 c -12.5,9.95403 -12.5,26.11936 0,36.07338 12.5,9.95403 32.8,9.95403 45.3,0 l 128,-101.92919 z"
     id="path1"
     style="stroke-width:0.892369" />
  <path
     d="m 503.40503,401.59436 c 12.5,-9.95403 12.5,-26.11935 0,-36.07338 l -128,-101.9292 c -12.5,-9.95403 -32.8,-9.95403 -45.3,0 -12.5,9.95402 -12.5,26.11935 0,36.07338 l 73.4,58.45003 H 32.805031 c -17.7,0 -31.99999955,11.3874 -31.99999955,25.4823 0,14.09489 14.29999955,25.4823 31.99999955,25.4823 H 403.50503 l -73.4,58.45002 c -12.5,9.95403 -12.5,26.11936 0,36.07338 12.5,9.95403 32.8,9.95403 45.3,0 l 128,-101.92919 z"
     id="path2"
     style="stroke-width:0.892369" />
</svg>
